<svg id="visual" viewBox="0 0 900 600" width="900" height="600" xmlns="http://www.w3.org/2000/svg" xmlns:xlink="http://www.w3.org/1999/xlink" version="1.1"><path d="M575 600L674 600L674 545L764 545L764 491L602 491L602 436L764 436L764 382L719 382L719 327L539 327L539 273L719 273L719 218L737 218L737 164L530 164L530 109L629 109L629 55L584 55L584 0L900 0L900 55L900 55L900 109L900 109L900 164L900 164L900 218L900 218L900 273L900 273L900 327L900 327L900 382L900 382L900 436L900 436L900 491L900 491L900 545L900 545L900 600L900 600Z" fill="#b7428f"></path><path d="M395 600L584 600L584 545L629 545L629 491L422 491L422 436L503 436L503 382L512 382L512 327L413 327L413 273L629 273L629 218L593 218L593 164L350 164L350 109L530 109L530 55L440 55L440 0L585 0L585 55L630 55L630 109L531 109L531 164L738 164L738 218L720 218L720 273L540 273L540 327L720 327L720 382L765 382L765 436L603 436L603 491L765 491L765 545L675 545L675 600L576 600Z" fill="#c564a1"></path><path d="M278 600L476 600L476 545L476 545L476 491L350 491L350 436L440 436L440 382L395 382L395 327L314 327L314 273L557 273L557 218L440 218L440 164L296 164L296 109L467 109L467 55L359 55L359 0L441 0L441 55L531 55L531 109L351 109L351 164L594 164L594 218L630 218L630 273L414 273L414 327L513 327L513 382L504 382L504 436L423 436L423 491L630 491L630 545L585 545L585 600L396 600Z" fill="#d284b4"></path><path d="M161 600L125 600L125 545L134 545L134 491L125 491L125 436L107 436L107 382L179 382L179 327L188 327L188 273L188 273L188 218L107 218L107 164L80 164L80 109L170 109L170 55L143 55L143 0L360 0L360 55L468 55L468 109L297 109L297 164L441 164L441 218L558 218L558 273L315 273L315 327L396 327L396 382L441 382L441 436L351 436L351 491L477 491L477 545L477 545L477 600L279 600Z" fill="#dea3c6"></path><path d="M0 600L0 600L0 545L0 545L0 491L0 491L0 436L0 436L0 382L0 382L0 327L0 327L0 273L0 273L0 218L0 218L0 164L0 164L0 109L0 109L0 55L0 55L0 0L144 0L144 55L171 55L171 109L81 109L81 164L108 164L108 218L189 218L189 273L189 273L189 327L180 327L180 382L108 382L108 436L126 436L126 491L135 491L135 545L126 545L126 600L162 600Z" fill="#eac2d9"></path></svg>